<svg width="59" height="52" viewBox="0 0 59 52" fill="none" xmlns="http://www.w3.org/2000/svg">
<path d="M28.0742 47.2658C28.4911 47.5259 28.9893 47.6655 29.5 47.6655C30.0108 47.6655 30.5089 47.5259 30.9258 47.2658C31.6732 46.7957 49.238 35.62 49.1667 21.6667C49.1667 12.1095 40.3437 4.33334 29.5 4.33334C18.6563 4.33334 9.83335 12.1095 9.83335 21.658C9.76205 35.62 27.3268 46.7957 28.0742 47.2658ZM29.5 8.66667C37.6346 8.66667 44.25 14.4972 44.25 21.6753C44.3016 31.291 33.4628 39.9252 29.5 42.7592C25.5396 39.9252 14.6984 31.291 14.75 21.6667C14.75 14.4972 21.3654 8.66667 29.5 8.66667Z" fill="black"/>
<path d="M27.0416 30.3333H31.9583V23.8333H39.3333V19.5H31.9583V13H27.0416V19.5H19.6666V23.8333H27.0416V30.3333Z" fill="black"/>
</svg>
