<svg width="60" height="60" viewBox="0 0 60 60" fill="none" xmlns="http://www.w3.org/2000/svg">
<path d="M18.75 33.75H33.75V37.5H18.75V33.75ZM18.75 24.375H41.25V28.125H18.75V24.375ZM18.75 43.125H28.125V46.875H18.75V43.125Z" fill="black"/>
<path d="M46.875 9.375H41.25V7.5C41.25 6.50544 40.8549 5.55161 40.1516 4.84835C39.4484 4.14509 38.4946 3.75 37.5 3.75H22.5C21.5054 3.75 20.5516 4.14509 19.8484 4.84835C19.1451 5.55161 18.75 6.50544 18.75 7.5V9.375H13.125C12.1304 9.375 11.1766 9.77009 10.4733 10.4733C9.77009 11.1766 9.375 12.1304 9.375 13.125V52.5C9.375 53.4946 9.77009 54.4484 10.4733 55.1516C11.1766 55.8549 12.1304 56.25 13.125 56.25H46.875C47.8696 56.25 48.8234 55.8549 49.5266 55.1516C50.2299 54.4484 50.625 53.4946 50.625 52.5V13.125C50.625 12.1304 50.2299 11.1766 49.5266 10.4733C48.8234 9.77009 47.8696 9.375 46.875 9.375ZM22.5 7.5H37.5V15H22.5V7.5ZM46.875 52.5H13.125V13.125H18.75V18.75H41.25V13.125H46.875V52.5Z" fill="black"/>
</svg>
