<svg width="60" height="60" viewBox="0 0 60 60" fill="none" xmlns="http://www.w3.org/2000/svg">
<path d="M30 55C28.6739 55 27.4021 54.4732 26.4645 53.5355C25.5268 52.5979 25 51.3261 25 50H35C35 51.3261 34.4732 52.5979 33.5355 53.5355C32.5979 54.4732 31.3261 55 30 55ZM50 47.5H10V42.5L15 40V26.25C15 17.595 18.5525 11.9825 25 10.45V5H35V10.45C41.4475 11.98 45 17.59 45 26.25V40L50 42.5V47.5ZM30 14.375C28.4986 14.2781 26.9968 14.5591 25.632 15.1923C24.2672 15.8256 23.0829 16.7909 22.1875 18C20.6314 20.4614 19.8678 23.341 20 26.25V42.5H40V26.25C40.132 23.341 39.3685 20.4615 37.8125 18C36.9171 16.7909 35.7328 15.8256 34.368 15.1923C33.0032 14.5591 31.5014 14.2781 30 14.375V14.375Z" fill="black"/>
</svg>
