<svg width="64" height="64" viewBox="0 0 64 64" fill="none" xmlns="http://www.w3.org/2000/svg">
<path d="M45.3064 55.256L43.5018 39.884C43.246 37.7067 42.2514 35.7037 40.7051 34.2519C39.1587 32.8 37.167 31.9992 35.1046 32H28.8898C26.8284 32.0006 24.8381 32.8021 23.2929 34.2538C21.7477 35.7056 20.7539 37.7077 20.4983 39.884L18.6908 55.256C18.5916 56.1005 18.6624 56.9579 18.8986 57.771C19.1347 58.5842 19.5307 59.3347 20.0604 59.9725C20.59 60.6104 21.2412 61.121 21.9705 61.4706C22.6999 61.8201 23.4909 62.0006 24.2908 62H39.7092C40.5089 62.0002 41.2996 61.8194 42.0286 61.4697C42.7576 61.1199 43.4084 60.6092 43.9378 59.9714C44.4671 59.3336 44.8629 58.5833 45.0989 57.7703C45.3348 56.9574 45.4056 56.1003 45.3064 55.256V55.256Z" stroke="black" stroke-width="2.66667" stroke-linecap="round" stroke-linejoin="round"/>
<path d="M32 20C36.6719 20 40.4593 15.9706 40.4593 11C40.4593 6.02944 36.6719 2 32 2C27.3281 2 23.5408 6.02944 23.5408 11C23.5408 15.9706 27.3281 20 32 20Z" stroke="black" stroke-width="2.66667"/>
<path d="M9.44199 29C12.5566 29 15.0815 26.3137 15.0815 23C15.0815 19.6863 12.5566 17 9.44199 17C6.32738 17 3.80249 19.6863 3.80249 23C3.80249 26.3137 6.32738 29 9.44199 29Z" stroke="black" stroke-width="2.66667"/>
<path d="M54.558 29C57.6726 29 60.1975 26.3137 60.1975 23C60.1975 19.6863 57.6726 17 54.558 17C51.4434 17 48.9185 19.6863 48.9185 23C48.9185 26.3137 51.4434 29 54.558 29Z" stroke="black" stroke-width="2.66667"/>
<path d="M9.44201 38H8.57917C7.24419 37.9998 5.95244 38.5035 4.93373 39.4214C3.91502 40.3394 3.23541 41.612 3.0158 43.013L2.07683 49.013C1.94208 49.8726 1.98496 50.7532 2.2025 51.5934C2.42004 52.4336 2.807 53.2133 3.33649 53.8783C3.86597 54.5433 4.52525 55.0775 5.26848 55.4439C6.01171 55.8104 6.82105 56.0001 7.64019 56H17.9013M54.558 38H55.4208C56.7558 37.9998 58.0476 38.5035 59.0663 39.4214C60.085 40.3394 60.7646 41.612 60.9842 43.013L61.9232 49.013C62.0579 49.8726 62.015 50.7532 61.7975 51.5934C61.58 52.4336 61.193 53.2133 60.6635 53.8783C60.134 54.5433 59.4747 55.0775 58.7315 55.4439C57.9883 55.8104 57.179 56.0001 56.3598 56H46.0987" stroke="black" stroke-width="2.66667" stroke-linecap="round" stroke-linejoin="round"/>
</svg>
