<svg width="32" height="32" viewBox="0 0 32 32" fill="none" xmlns="http://www.w3.org/2000/svg">
<path d="M26.12 8.91996C24.7909 8.62768 23.5885 7.92187 22.6854 6.90382C21.7824 5.88576 21.225 4.60779 21.0933 3.25329V2.66663H16.4933V20.8933C16.4943 21.702 16.2407 22.4906 15.7686 23.1472C15.2965 23.8039 14.6297 24.2953 13.8628 24.5519C13.0958 24.8086 12.2676 24.8174 11.4953 24.5771C10.7231 24.3369 10.046 23.8597 9.56001 23.2133C9.12461 22.6411 8.85799 21.9585 8.79032 21.2426C8.72264 20.5268 8.8566 19.8063 9.17705 19.1626C9.4975 18.519 9.99165 17.9778 10.6036 17.6003C11.2156 17.2228 11.921 17.0241 12.64 17.0266C13.0377 17.0244 13.4333 17.0828 13.8133 17.2V12.5333C13.3711 12.4785 12.9255 12.4562 12.48 12.4666C10.8391 12.5105 9.24657 13.0319 7.89746 13.967C6.54834 14.9021 5.5012 16.2103 4.88425 17.7315C4.26729 19.2526 4.10731 20.9207 4.4239 22.5314C4.74048 24.1421 5.51989 25.6255 6.66668 26.8C7.84199 27.9949 9.346 28.8135 10.9876 29.1517C12.6292 29.4899 14.3343 29.3325 15.8862 28.6994C17.4381 28.0664 18.7669 26.9862 19.7035 25.5963C20.6402 24.2064 21.1425 22.5694 21.1467 20.8933V11.56C23.002 12.8852 25.2267 13.5942 27.5067 13.5866V9.05329C27.0588 9.05514 26.612 9.01046 26.1733 8.91996H26.12Z" fill="white"/>
</svg>
