<svg width="622" height="100" viewBox="0 0 622 100" fill="none" xmlns="http://www.w3.org/2000/svg">
<path d="M20.9867 96.3969C27.4276 96.3969 41.9068 92.8206 41.9068 79.0532C41.9068 62.2476 11.6811 59.3831 11.6811 47.4039C11.6811 44.3657 14.5457 38.4629 22.063 38.4629C28.8512 38.4629 29.563 42.2129 29.563 47.4039C29.563 50.9803 30.6394 54.3831 34.2158 54.3831C36.7158 54.3831 39.2332 51.3449 39.2332 48.2893C39.2332 42.3865 31.1776 36.6747 22.2367 36.6747C10.4311 36.6747 2.9311 44.3657 2.9311 51.8657C2.9311 66.3622 32.4276 70.824 32.4276 86.206C32.4276 91.9351 26.8894 94.6088 20.9867 94.6088C14.0075 94.6088 8.4693 89.9733 8.4693 86.206C8.4693 81.9178 10.0839 81.0324 10.0839 76.9178C10.0839 75.1296 8.29568 72.9768 5.60471 72.9768C2.56652 72.9768 0.24013 75.4768 0.413744 79.4178C0.778326 88.1851 9.89291 96.3969 20.9867 96.3969Z" fill="black"/>
<path d="M82.4965 96.3969C93.0521 96.3969 101.819 91.0324 104.493 80.3032L102.531 79.956C99.3021 92.2824 90.0139 94.6088 81.6111 94.6088C71.2292 94.6088 64.9792 87.6469 64.9792 65.824C64.9792 44.1747 72.1319 38.4629 82.4965 38.4629C88.5729 38.4629 91.9757 41.6747 91.2639 46.3275C90.7257 50.2685 91.8021 54.1921 95.5521 55.0949C100.378 56.1712 105.396 49.1921 101.628 44.0011C97.7049 38.4629 89.6493 36.6747 82.4965 36.6747C66.5764 36.6747 51.9236 48.8275 51.9236 66.5358C51.9236 84.4178 63.9028 96.3969 82.4965 96.3969Z" fill="black"/>
<path d="M123.261 22.1782C127.376 22.1782 130.587 18.7928 130.587 14.6782C130.587 10.7372 127.376 7.52542 123.261 7.52542C119.511 7.52542 116.282 10.7372 116.282 14.6782C116.282 18.7928 119.511 22.1782 123.261 22.1782ZM117.723 94.9733H128.99V38.4629H117.723V94.9733Z" fill="black"/>
<path d="M175.961 96.3969C186.517 96.3969 205.822 90.6851 205.822 68.4976C205.822 42.7511 154.677 36.6747 154.677 17.1782C154.677 9.66084 163.079 1.79625 175.25 1.79625C186.152 1.79625 189.92 8.94903 189.92 17.1782C189.92 23.081 192.958 25.7546 196.534 25.7546C200.111 25.7546 202.975 23.6192 202.975 18.6018C202.975 9.31361 189.92 0.00806046 175.614 0.00806046C156.465 0.00806046 147.524 12.3518 147.524 24.5046C147.524 47.9421 197.611 48.2893 197.611 79.956C197.611 90.4942 185.614 94.6087 175.961 94.6087C164.694 94.6087 155.753 86.0324 155.753 79.956C155.753 72.9768 156.829 71.7268 156.829 65.1122C156.829 62.2476 154.677 58.8449 150.388 58.8449C146.274 58.8449 143.062 62.6122 143.409 69.0358C144.138 83.1678 158.079 96.3969 175.961 96.3969Z" fill="#5271FF"/>
<path d="M225.63 22.1782C229.745 22.1782 232.956 18.7928 232.956 14.6782C232.956 10.7372 229.745 7.52542 225.63 7.52542C221.88 7.52542 218.651 10.7372 218.651 14.6782C218.651 18.7928 221.88 22.1782 225.63 22.1782ZM220.092 94.9733H231.359V38.4629H220.092V94.9733Z" fill="black"/>
<path d="M247.615 94.9733H258.883V48.1157C262.112 42.5775 266.938 38.8101 273.553 38.8101C279.456 38.8101 283.917 42.0393 283.917 56.1712V94.9733H294.664V62.4212C294.664 53.1331 295.185 49.0185 297.164 45.7893C299.664 41.6747 303.605 39.1747 308.969 39.1747C316.834 39.1747 319.334 45.9803 319.334 56.5185V94.9733H330.237V60.2858C330.237 45.7893 322.546 37.5601 309.143 37.5601C301.278 37.5601 296.088 42.2129 292.876 49.0185C289.82 41.3275 283.032 37.2129 273.553 37.2129C267.285 37.2129 262.459 40.2511 258.883 45.0775V38.4629H247.615V94.9733Z" fill="black"/>
<path d="M366.176 98.3761L391.21 38.4629H389.422L371.193 82.2824L353.485 38.4629H341.141L366.176 98.3761Z" fill="black"/>
<path d="M429.834 96.3969C440.39 96.3969 448.793 90.1469 453.445 80.3032L451.466 79.956C446.293 91.3969 437.352 94.6088 428.949 94.6088C418.932 94.6088 412.838 88.1851 412.317 67.7858H456.119C455.945 49.9039 443.966 36.6747 428.949 36.6747C412.491 36.6747 399.261 49.1921 399.261 68.1504C399.973 85.1296 411.779 96.3969 429.834 96.3969ZM412.317 65.9976C412.317 47.5775 416.779 38.4629 428.949 38.4629C438.411 38.4629 442.89 47.7685 443.063 65.9976H412.317Z" fill="black"/>
<path d="M467.913 94.9733H479.18V51.1539C482.045 45.2511 487.774 39.3483 490.812 39.3483C492.062 39.3483 492.774 40.2511 492.774 43.1157C492.774 46.3275 495.465 49.0185 498.677 49.0185C501.906 49.0185 504.406 46.3275 504.406 43.1157C504.406 38.8101 500.465 36.6747 494.753 36.6747C489.024 36.6747 483.66 40.4247 479.18 47.5775V38.4629H467.913V94.9733Z" fill="black"/>
<path d="M532.289 96.3969C538.73 96.3969 553.209 92.8206 553.209 79.0532C553.209 62.2476 522.983 59.3831 522.983 47.4039C522.983 44.3657 525.848 38.4629 533.365 38.4629C540.153 38.4629 540.865 42.2129 540.865 47.4039C540.865 50.9803 541.942 54.3831 545.518 54.3831C548.018 54.3831 550.535 51.3449 550.535 48.2893C550.535 42.3865 542.48 36.6747 533.539 36.6747C521.733 36.6747 514.233 44.3657 514.233 51.8657C514.233 66.3622 543.73 70.824 543.73 86.206C543.73 91.9351 538.192 94.6088 532.289 94.6088C525.31 94.6088 519.772 89.9733 519.772 86.206C519.772 81.9178 521.386 81.0324 521.386 76.9178C521.386 75.1296 519.598 72.9768 516.907 72.9768C513.869 72.9768 511.542 75.4768 511.716 79.4178C512.081 88.1851 521.195 96.3969 532.289 96.3969Z" fill="black"/>
<path d="M593.808 96.3969C604.363 96.3969 612.766 90.1469 617.419 80.3032L615.44 79.956C610.266 91.3969 601.325 94.6088 592.922 94.6088C582.905 94.6088 576.811 88.1851 576.29 67.7858H620.092C619.919 49.9039 607.94 36.6747 592.922 36.6747C576.464 36.6747 563.235 49.1921 563.235 68.1504C563.947 85.1296 575.752 96.3969 593.808 96.3969ZM576.29 65.9976C576.29 47.5775 580.752 38.4629 592.922 38.4629C602.384 38.4629 606.863 47.7685 607.037 65.9976H576.29Z" fill="black"/>
</svg>
