<svg width="436" height="70" viewBox="0 0 436 70" fill="none" xmlns="http://www.w3.org/2000/svg">
<rect width="435.167" height="70" fill="black"/>
<path d="M14.6284 67.5774C19.1371 67.5774 29.2847 65.0739 29.2847 55.4368C29.2847 43.6729 8.11454 41.6677 8.11454 33.2701C8.11454 31.1434 10.1198 27.0114 15.3819 27.0114C20.1458 27.0114 20.6441 29.6486 20.6441 33.2701C20.6441 35.7857 21.3975 38.1555 23.901 38.1555C25.651 38.1555 27.401 36.0288 27.401 33.9021C27.401 29.7701 21.7621 25.7597 15.5034 25.7597C7.23954 25.7597 1.98954 31.1434 1.98954 36.4055C1.98954 46.5531 22.6493 49.6764 22.6493 60.4437C22.6493 64.4541 18.7604 66.3257 14.6284 66.3257C9.74302 66.3257 5.86628 63.0809 5.86628 60.4437C5.86628 57.442 6.99649 56.81 6.99649 53.9298C6.99649 52.6781 5.74475 51.1833 3.86107 51.1833C1.73434 51.1833 0.105862 52.9333 0.227391 55.692C0.482599 61.817 6.86281 67.5774 14.6284 67.5774Z" fill="white"/>
<path d="M57.6947 67.5774C65.0836 67.5774 71.2207 63.8222 73.1044 56.3118L71.719 56.0687C69.4707 64.6972 62.9568 66.3257 57.0749 66.3257C49.8075 66.3257 45.4325 61.4524 45.4325 46.1764C45.4325 31.0219 50.4395 27.0114 57.6947 27.0114C61.9603 27.0114 64.3301 29.2719 63.8318 32.5288C63.4551 35.2753 64.2086 38.034 66.8336 38.6538C70.2242 39.4073 73.7242 34.5219 71.0992 30.9003C68.3405 27.0114 62.7016 25.7597 57.6947 25.7597C46.5506 25.7597 36.2936 34.2788 36.2936 46.6746C36.2936 59.192 44.6791 67.5774 57.6947 67.5774Z" fill="white"/>
<path d="M86.2392 15.6243C89.1194 15.6243 91.3798 13.2423 91.3798 10.3621C91.3798 7.60346 89.1194 5.35519 86.2392 5.35519C83.6142 5.35519 81.3538 7.60346 81.3538 10.3621C81.3538 13.2423 83.6142 15.6243 86.2392 15.6243ZM82.3624 66.5809H90.2496V27.0114H82.3624V66.5809Z" fill="white"/>
<path d="M123.182 67.5774C130.559 67.5774 144.085 63.5791 144.085 48.0479C144.085 30.0253 108.271 25.7597 108.271 12.1121C108.271 6.86211 114.165 1.34475 122.672 1.34475C130.316 1.34475 132.941 6.3517 132.941 12.1121C132.941 16.2441 135.067 18.1277 137.571 18.1277C140.074 18.1277 142.08 16.6208 142.08 13.1208C142.08 6.60691 132.941 0.0930176 122.927 0.0930176C109.522 0.0930176 103.264 8.73364 103.264 17.2527C103.264 33.6468 138.324 33.902 138.324 56.0687C138.324 63.4454 129.939 66.3257 123.182 66.3257C115.283 66.3257 109.024 60.3222 109.024 56.0687C109.024 51.1833 109.778 50.3083 109.778 45.6659C109.778 43.6729 108.271 41.2909 105.269 41.2909C102.389 41.2909 100.14 43.9159 100.383 48.4246C100.894 58.317 110.653 67.5774 123.182 67.5774Z" fill="#5271FF"/>
<path d="M157.966 15.6243C160.846 15.6243 163.107 13.2423 163.107 10.3621C163.107 7.60346 160.846 5.35519 157.966 5.35519C155.341 5.35519 153.08 7.60346 153.08 10.3621C153.08 13.2423 155.341 15.6243 157.966 15.6243ZM154.089 66.5809H161.976V27.0114H154.089V66.5809Z" fill="white"/>
<path d="M173.362 66.5809H181.249V33.7805C183.509 29.8917 186.888 27.2667 191.518 27.2667C195.65 27.2667 198.785 29.5149 198.785 39.4073V66.5809H206.296V43.7944C206.296 37.2805 206.673 34.4003 208.046 32.1521C209.808 29.2719 212.555 27.5219 216.31 27.5219C221.827 27.5219 223.577 32.2736 223.577 39.6625V66.5809H231.209V42.2875C231.209 32.1521 225.825 26.3917 216.443 26.3917C210.926 26.3917 207.292 29.6486 205.044 34.4003C202.917 29.0167 198.153 26.1364 191.518 26.1364C187.143 26.1364 183.765 28.2632 181.249 31.6538V27.0114H173.362V66.5809Z" fill="white"/>
<path d="M256.366 68.9628L273.903 27.0114H272.651L259.879 57.6851L247.483 27.0114H238.842L256.366 68.9628Z" fill="white"/>
<path d="M300.94 67.5774C308.329 67.5774 314.211 63.2024 317.468 56.3118L316.095 56.0687C312.461 64.0774 306.202 66.3257 300.32 66.3257C293.308 66.3257 289.055 61.817 288.678 47.5496H319.351C319.23 35.0323 310.832 25.7597 300.32 25.7597C288.799 25.7597 279.539 34.5219 279.539 47.8048C280.037 59.6903 288.301 67.5774 300.94 67.5774ZM288.678 46.2979C288.678 33.4038 291.801 27.0114 300.32 27.0114C306.956 27.0114 310.079 33.5253 310.213 46.2979H288.678Z" fill="white"/>
<path d="M327.604 66.5809H335.492V35.9073C337.497 31.7753 341.507 27.6434 343.634 27.6434C344.509 27.6434 345.019 28.2632 345.019 30.2684C345.019 32.5288 346.891 34.4003 349.151 34.4003C351.4 34.4003 353.15 32.5288 353.15 30.2684C353.15 27.2666 350.403 25.7597 346.393 25.7597C342.382 25.7597 338.627 28.3969 335.492 33.4038V27.0114H327.604V66.5809Z" fill="white"/>
<path d="M372.677 67.5774C377.186 67.5774 387.333 65.0739 387.333 55.4368C387.333 43.6729 366.163 41.6677 366.163 33.2701C366.163 31.1434 368.168 27.0114 373.43 27.0114C378.194 27.0114 378.692 29.6486 378.692 33.2701C378.692 35.7857 379.446 38.1555 381.949 38.1555C383.699 38.1555 385.449 36.0288 385.449 33.9021C385.449 29.7701 379.811 25.7597 373.552 25.7597C365.288 25.7597 360.038 31.1434 360.038 36.4055C360.038 46.5531 380.698 49.6764 380.698 60.4437C380.698 64.4541 376.809 66.3257 372.677 66.3257C367.791 66.3257 363.915 63.0809 363.915 60.4437C363.915 57.442 365.045 56.81 365.045 53.9298C365.045 52.6781 363.793 51.1833 361.909 51.1833C359.783 51.1833 358.154 52.9333 358.276 55.692C358.531 61.817 364.911 67.5774 372.677 67.5774Z" fill="white"/>
<path d="M415.743 67.5774C423.132 67.5774 429.014 63.2024 432.271 56.3118L430.898 56.0687C427.264 64.0774 421.005 66.3257 415.123 66.3257C408.111 66.3257 403.858 61.817 403.481 47.5496H434.155C434.033 35.0323 425.635 25.7597 415.123 25.7597C403.602 25.7597 394.342 34.5219 394.342 47.8048C394.84 59.6903 403.104 67.5774 415.743 67.5774ZM403.481 46.2979C403.481 33.4038 406.604 27.0114 415.123 27.0114C421.759 27.0114 424.882 33.5253 425.016 46.2979H403.481Z" fill="white"/>
</svg>
